<?xml version="1.0" encoding="UTF-8" standalone="no"?>
<!DOCTYPE svg PUBLIC "-//W3C//DTD SVG 1.1//EN" "http://www.w3.org/Graphics/SVG/1.1/DTD/svg11.dtd">
<!-- Created with Vectornator (http://vectornator.io/) -->
<svg height="100%" stroke-miterlimit="10" style="fill-rule:nonzero;clip-rule:evenodd;stroke-linecap:round;stroke-linejoin:round;" version="1.1" viewBox="0 0 344 344" width="100%" xml:space="preserve" xmlns="http://www.w3.org/2000/svg" xmlns:vectornator="http://vectornator.io" xmlns:xlink="http://www.w3.org/1999/xlink">
<defs/>
<g id="Page-4" vectornator:layerName="Page-4">
<g opacity="1">
<g opacity="1">
<path d="M210.229 100.47L227.924 92.6327L226.612 111.941L173.089 188.38L156.706 176.908L210.229 100.47Z" fill="#ffffff" fill-rule="evenodd" opacity="1" stroke="none"/>
<path d="M176.001 110.995L206.95 99.9209L144.852 188.607L129.288 177.709L176.001 110.995Z" fill="#ffffff" fill-rule="evenodd" opacity="1" stroke="none"/>
<path d="M228.427 147.704L228.248 114.834L166.15 203.52L181.714 214.418L228.427 147.704Z" fill="#ffffff" fill-rule="evenodd" opacity="1" stroke="none"/>
<path d="M213.894 206.815L213.715 173.945L184.311 215.939L182.824 251.188L213.894 206.815Z" fill="#ffffff" fill-rule="evenodd" opacity="1" stroke="none"/>
<path d="M125.425 144.869L156.375 133.795L126.97 175.789L94.3552 189.242L125.425 144.869Z" fill="#ffffff" fill-rule="evenodd" opacity="1" stroke="none"/>
<path d="M132.153 206.743L143.774 199.736L141.164 213.052L112.76 242.72L132.153 206.743Z" fill="#ffffff" fill-rule="evenodd" opacity="1" stroke="none"/>
<path d="M132.149 231.156L143.77 224.149L141.16 237.465L112.756 267.134L132.149 231.156Z" fill="#ffffff" fill-rule="evenodd" opacity="1" stroke="none"/>
<path d="M156.083 260.54C194.624 269.429 236.431 254.828 260.511 220.437C292.189 175.197 281.194 112.842 235.954 81.1645C190.713 49.4868 128.359 60.4816 96.6809 105.722C74.0577 138.031 73.199 179.069 91.0352 211.428" fill="none" opacity="1" stroke="#ffffff" stroke-linecap="butt" stroke-linejoin="miter" stroke-width="13"/>
</g>
</g>
</g>
</svg>
